<!-- Generated by scripts/generate-squid.mjs -->
<svg xmlns="http://www.w3.org/2000/svg" viewBox="0 0 512 520" width="512" height="520" role="img" aria-labelledby="death-6-title">
  <title id="death-6-title">Death 7/8</title>
  <g id="squid">
    <g id="tentacle-6" aria-label="Tentacle 6">
      <g class="face" data-face="front">
        <path fill="#18314d" d="M181.24 324.42L180.23 340.43L127.04 441.06L128.05 425.05Z"/>
      </g>
      <g class="face" data-face="px">
        <path fill="#223c59" d="M180.23 340.43L199.31 344.74L146.12 445.37L127.04 441.06Z"/>
      </g>
      <g class="face" data-face="top">
        <path fill="#465e75" d="M200.32 328.72L199.31 344.74L180.23 340.43L181.24 324.42Z"/>
      </g>
    </g>
    <g id="tentacle-5" aria-label="Tentacle 5">
      <g class="face" data-face="nx">
        <path fill="#173756" d="M182.21 291.15L164.33 296.69L99.3 300.46L117.17 294.92Z"/>
      </g>
      <g class="face" data-face="front">
        <path fill="#18324e" d="M164.33 296.69L169.64 315.91L104.61 319.67L99.3 300.46Z"/>
      </g>
      <g class="face" data-face="top">
        <path fill="#294764" d="M182.21 291.15L187.52 310.36L169.64 315.91L164.33 296.69Z"/>
      </g>
    </g>
    <g id="tentacle-7" aria-label="Tentacle 7">
      <g class="face" data-face="back">
        <path fill="#1d3754" d="M211.14 349.57L217.88 346.14L143.39 500.25L136.65 503.68Z"/>
      </g>
      <g class="face" data-face="px">
        <path fill="#254261" d="M194.23 339.82L211.14 349.57L136.65 503.68L119.74 493.93Z"/>
      </g>
      <g class="face" data-face="top">
        <path fill="#3d576f" d="M217.88 346.14L211.14 349.57L194.23 339.82L200.97 336.39Z"/>
      </g>
    </g>
    <g id="tentacle-4" aria-label="Tentacle 4">
      <g class="face" data-face="front">
        <path fill="#17304c" d="M160.42 268.77L168.94 279.93L65.86 200.18L57.33 189.02Z"/>
      </g>
      <g class="face" data-face="nx">
        <path fill="#203f5c" d="M174.42 254.74L160.42 268.77L57.33 189.02L71.34 174.99Z"/>
      </g>
      <g class="face" data-face="top">
        <path fill="#1a3755" d="M174.42 254.74L182.94 265.89L168.94 279.93L160.42 268.77Z"/>
      </g>
    </g>
    <g id="tentacle-8" aria-label="Tentacle 8">
      <g class="face" data-face="back">
        <path fill="#213f5d" d="M215.93 320.78L224.45 331.93L107.99 464.8L99.46 453.64Z"/>
      </g>
      <g class="face" data-face="px">
        <path fill="#304f6d" d="M203.28 313.19L215.93 320.78L99.46 453.64L86.82 446.06Z"/>
      </g>
      <g class="face" data-face="bottom">
        <path fill="#1f3854" d="M95.34 457.21L86.82 446.06L99.46 453.64L107.99 464.8Z"/>
      </g>
    </g>
    <g id="tentacle-3" aria-label="Tentacle 3">
      <g class="face" data-face="back">
        <path fill="#435d76" d="M187.73 237.1L180.99 240.54L35.94 139.54L42.68 136.11Z"/>
      </g>
      <g class="face" data-face="nx">
        <path fill="#163352" d="M180.99 240.54L171.25 256.73L26.2 155.74L35.94 139.54Z"/>
      </g>
      <g class="face" data-face="top">
        <path fill="#17304c" d="M180.99 240.54L187.73 237.1L177.99 253.3L171.25 256.73Z"/>
      </g>
    </g>
    <g id="tentacle-1" aria-label="Tentacle 1">
      <g class="face" data-face="px">
        <path fill="#284767" d="M202.57 277.21L211.35 276.31L56.84 325.66L48.06 326.56Z"/>
      </g>
      <g class="face" data-face="back">
        <path fill="#324f6c" d="M211.35 276.31L216.66 295.52L62.15 344.87L56.84 325.66Z"/>
      </g>
      <g class="face" data-face="bottom">
        <path fill="#203a57" d="M53.38 345.77L48.06 326.56L56.84 325.66L62.15 344.87Z"/>
      </g>
    </g>
    <g id="tentacle-2" aria-label="Tentacle 2">
      <g class="face" data-face="nx">
        <path fill="#142f4c" d="M198.55 257.95L190.98 268.7L24.62 221.18L32.19 210.43Z"/>
      </g>
      <g class="face" data-face="back">
        <path fill="#4b647b" d="M199.56 241.93L198.55 257.95L32.19 210.43L33.2 194.41Z"/>
      </g>
      <g class="face" data-face="bottom">
        <path fill="#1f3955" d="M24.62 221.18L25.63 205.17L33.2 194.41L32.19 210.43Z"/>
      </g>
    </g>
    <g id="body" aria-label="Body">
      <g class="face" data-face="back">
        <path fill="#1a3a59" d="M332.54 194.23L292.1 214.83L147.58 249.79L188.01 229.2Z"/>
      </g>
      <g class="face" data-face="top">
        <path fill="#1d3d5d" d="M292.1 214.83L332.54 194.23L364.42 309.51L323.99 330.1Z"/>
      </g>
      <g class="face" data-face="nx">
        <path fill="#264362" d="M292.1 214.83L323.99 330.1L179.46 365.07L147.58 249.79Z"/>
      </g>
    </g>
  </g>
</svg>
