<!-- Generated by scripts/generate-items-svg.mjs -->
<svg xmlns="http://www.w3.org/2000/svg" viewBox="0 0 512 512" width="512" height="512" role="img" aria-labelledby="pumpkin-pie-title">
  <title id="pumpkin-pie-title">南瓜派 / Pumpkin pie</title>
  <g id="pumpkin-pie">
    <path fill="#ab775c" d="M181 156h150v25h-150zM131 181h50v25h-50zM331 181h50v25h-50zM106 206h25v25h-25zM381 206h25v25h-25zM81 231h25v25h-25zM406 231h25v25h-25zM81 256h25v25h-25zM81 281h25v25h-25zM81 306h25v25h-25z"/>
    <path fill="#fecc7e" d="M181 181h75v25h-75zM381 256h25v25h-25zM381 281h25v25h-25zM356 306h25v25h-25zM256 331h100v25h-100z"/>
    <path fill="#eab563" d="M256 181h75v25h-75zM131 206h50v25h-50zM331 206h50v25h-50zM106 231h25v25h-25zM381 231h25v25h-25zM106 256h25v25h-25zM381 306h25v25h-25zM356 331h25v25h-25zM256 356h100v25h-100zM256 381h50v25h-50z"/>
    <path fill="#ea9e60" d="M181 206h25v25h-25zM306 206h25v25h-25zM131 231h25v25h-25zM206 231h25v25h-25zM281 231h25v25h-25zM356 231h25v25h-25zM206 256h25v25h-25zM306 256h25v25h-25zM106 281h25v25h-25zM281 281h25v25h-25zM356 281h25v25h-25zM331 306h25v25h-25zM231 331h25v25h-25z"/>
    <path fill="#d88b50" d="M206 206h100v25h-100zM156 231h50v25h-50zM306 231h50v25h-50zM131 256h25v25h-25zM331 256h50v25h-50zM306 281h50v25h-50zM256 306h75v25h-75z"/>
    <path fill="#eeac6e" d="M231 231h50v25h-50zM156 256h25v25h-25zM281 256h25v25h-25zM131 281h25v25h-25zM256 281h25v25h-25z"/>
    <path fill="#f1b87b" d="M181 256h25v25h-25zM231 306h25v25h-25z"/>
    <path fill="#b75c12" d="M231 256h25v25h-25zM181 281h50v25h-50zM106 306h25v25h-25zM181 306h25v25h-25zM156 331h25v25h-25z"/>
    <path fill="#a45413" d="M256 256h25v25h-25zM231 281h25v25h-25zM206 306h25v25h-25z"/>
    <path fill="#77561f" d="M406 256h25v25h-25zM406 281h25v25h-25zM406 306h25v25h-25zM81 331h25v25h-25zM181 331h50v25h-50zM406 331h25v25h-25zM106 356h75v25h-75zM206 356h25v25h-25zM381 356h25v25h-25zM206 381h25v25h-25zM331 381h50v25h-50zM231 406h100v25h-100z"/>
    <path fill="#db7422" d="M156 281h25v25h-25zM131 306h50v25h-50zM106 331h50v25h-50z"/>
    <path fill="#d59f4b" d="M381 331h25v25h-25zM231 356h25v25h-25zM356 356h25v25h-25zM231 381h25v25h-25zM306 381h25v25h-25z"/>
  </g>
</svg>
