<!-- Generated by scripts/generate-cat.mjs -->
<svg xmlns="http://www.w3.org/2000/svg" viewBox="0 0 512 480" width="512" height="480" role="img" aria-labelledby="walk-9-title">
  <title id="walk-9-title">Walk 10/16</title>
  <g id="cat">
    <g id="leg-front-left" aria-label="Front left leg">
      <g class="face" data-face="nx">
        <path fill="#a86b39" d="M363.76 328.12L387.28 323.34L411.17 440.94L387.65 445.71Z"/>
      </g>
    </g>
    <g id="leg-hind-left" aria-label="Hind left leg">
      <g class="face" data-face="nx">
        <path fill="#9c5e2d" d="M232.24 373.69L255.76 378.47L241.43 449.03L217.91 444.25Z"/>
      </g>
    </g>
    <g id="ear-left" aria-label="Left ear">
      <g class="face" data-face="top">
        <path fill="#c37f44" d="M428.67 297.94L437.14 295.71L454.12 301.22L445.64 303.45Z"/>
      </g>
      <g class="face" data-face="nx">
        <path fill="#a06637" d="M428.67 297.94L445.64 303.45L445.25 314.92L428.28 309.41Z"/>
      </g>
      <g class="face" data-face="front">
        <path fill="#b0692d" d="M445.64 303.45L454.12 301.22L453.73 312.69L445.25 314.92Z"/>
      </g>
    </g>
    <g id="tail1" aria-label="Tail">
      <g class="face" data-face="top">
        <path fill="#af703d" d="M231.21 328.08L232.46 328.08L232.63 340.08L231.37 340.08Z"/>
      </g>
      <g class="face" data-face="nx">
        <path fill="#bd7131" d="M231.21 328.08L231.37 340.08L135.91 341.39L135.74 329.39Z"/>
      </g>
    </g>
    <g id="tail2" aria-label="Tail tip">
      <g class="face" data-face="back">
        <path fill="#c2793c" d="M140.35 328.74L139.51 328.74L49.05 297.24L49.88 297.24Z"/>
      </g>
      <g class="face" data-face="top">
        <path fill="#976137" d="M139.51 328.74L140.35 328.74L136.42 340.08L135.58 340.08Z"/>
      </g>
      <g class="face" data-face="nx">
        <path fill="#c87d3d" d="M139.51 328.74L135.58 340.08L45.12 308.58L49.05 297.24Z"/>
      </g>
    </g>
    <g id="body" aria-label="Body">
      <g class="face" data-face="front">
        <path fill="#875834" d="M409.21 406.54L409.21 407.02L217.69 393.43L217.69 392.95Z"/>
      </g>
      <g class="face" data-face="nx">
        <path fill="#ca8041" d="M414.31 334.73L409.21 406.54L217.69 392.95L222.79 321.13Z"/>
      </g>
    </g>
    <g id="head" aria-label="Head">
      <g class="face" data-face="top">
        <path fill="#c47c3e" d="M399.25 314.32L441.67 313.52L483.96 319.18L441.54 319.99Z"/>
      </g>
      <g class="face" data-face="front">
        <path fill="#c07536" d="M441.54 319.99L483.96 319.18L481.21 366.97L438.79 367.77Z"/>
      </g>
      <g class="face" data-face="nx">
        <path fill="#9f6434" d="M399.25 314.32L441.54 319.99L438.79 367.77L396.5 362.11Z"/>
      </g>
    </g>
    <g id="ear-right" aria-label="Right ear">
      <g class="face" data-face="top">
        <path fill="#cf884a" d="M413.3 296.16L421.53 298.08L437.68 303.6L429.45 301.69Z"/>
      </g>
      <g class="face" data-face="nx">
        <path fill="#a66733" d="M413.3 296.16L429.45 301.69L426.14 313.21L409.99 307.68Z"/>
      </g>
      <g class="face" data-face="front">
        <path fill="#bf773c" d="M429.45 301.69L437.68 303.6L434.38 315.12L426.14 313.21Z"/>
      </g>
    </g>
    <g id="leg-hind-right" aria-label="Hind right leg">
      <g class="face" data-face="nx">
        <path fill="#bb7031" d="M232.27 378.62L255.73 373.53L271 443.9L247.54 448.99Z"/>
      </g>
    </g>
    <g id="leg-front-right" aria-label="Front right leg">
      <g class="face" data-face="nx">
        <path fill="#ca7f40" d="M364.78 323.19L388.24 328.28L362.78 445.55L339.33 440.46Z"/>
      </g>
    </g>
    <g id="snout" aria-label="Muzzle">
      <g class="face" data-face="top">
        <path fill="#d0874a" d="M440.19 342.58L465.64 342.1L482.56 344.37L457.11 344.85Z"/>
      </g>
      <g class="face" data-face="front">
        <path fill="#c07536" d="M457.11 344.85L482.56 344.37L481.18 368.26L455.73 368.74Z"/>
      </g>
      <g class="face" data-face="nx">
        <path fill="#9d6233" d="M440.19 342.58L457.11 344.85L455.73 368.74L438.81 366.47Z"/>
      </g>
    </g>
  </g>
</svg>
