<!-- Generated by scripts/generate-zombie-sprites.mjs -->
<svg xmlns="http://www.w3.org/2000/svg" viewBox="0 0 512 520" width="512" height="520" role="img" aria-labelledby="death-6-title">
  <title id="death-6-title">Death 7/12</title>
  <g id="zombie">
    <g id="arm-left" aria-label="Left arm">
      <g class="face" data-face="back">
        <path fill="#446144" d="M388.79 338.97L398.66 338.74L283.03 420.94L273.16 421.17Z"/>
        <path fill="#04747b" stroke="#04747b" stroke-width=".6" stroke-linejoin="round" d="M388.79 338.97L398.66 338.74L389.02 345.59L379.16 345.82ZM379.16 345.82L389.02 345.59L379.39 352.44L369.52 352.67ZM369.52 352.67L379.39 352.44L369.75 359.29L359.89 359.52ZM359.89 359.52L369.75 359.29L360.12 366.14L350.25 366.37Z"/>
      </g>
      <g class="face" data-face="bottom">
        <path fill="#2f492f" d="M309.88 460.35L300.02 460.58L273.16 421.17L283.03 420.94Z"/>
      </g>
      <g class="face" data-face="nx">
        <path fill="#375e2c" d="M398.66 338.74L425.51 378.15L309.88 460.35L283.03 420.94Z"/>
        <path fill="#017173" stroke="#017173" stroke-width=".6" stroke-linejoin="round" d="M398.66 338.74L425.51 378.15L415.88 385L389.02 345.59ZM389.02 345.59L415.88 385L406.24 391.85L379.39 352.44ZM379.39 352.44L406.24 391.85L396.61 398.7L369.75 359.29Z"/>
        <path fill="#015154" stroke="#015154" stroke-width=".6" stroke-linejoin="round" d="M369.75 359.29L396.61 398.7L386.97 405.55L360.12 366.14Z"/>
      </g>
    </g>
    <g id="leg-left" aria-label="Left leg">
      <g class="face" data-face="front">
        <path fill="#2e2b73" d="M293.38 410.27L291.64 414.52L198.25 523.34L199.99 519.09Z"/>
        <path fill="#454850" stroke="#454850" stroke-width=".6" stroke-linejoin="round" d="M215.56 500.96L214.68 503.08L206.9 512.15L207.77 510.03ZM214.25 504.14L213.81 505.2L206.03 514.27L206.47 513.21ZM207.77 510.03L206.03 514.27L198.25 523.34L199.99 519.09Z"/>
        <path fill="#5a5e65" stroke="#5a5e65" stroke-width=".6" stroke-linejoin="round" d="M214.68 503.08L214.25 504.14L206.47 513.21L206.9 512.15Z"/>
      </g>
      <g class="face" data-face="bottom">
        <path fill="#1b2028" d="M199.99 519.09L198.25 523.34L161.75 492.19L163.5 487.95Z"/>
      </g>
      <g class="face" data-face="nx">
        <path fill="#2a2567" d="M256.89 379.12L293.38 410.27L199.99 519.09L163.5 487.95Z"/>
        <path fill="#3d3492" stroke="#3d3492" stroke-width=".6" stroke-linejoin="round" d="M227.1 432.25L236.22 440.04L228.44 449.11L219.32 441.32ZM219.32 441.32L237.56 456.9L229.78 465.96L211.53 450.39ZM220.66 458.18L229.78 465.96L222 475.03L212.87 467.25Z"/>
        <path fill="#37393b" stroke="#37393b" stroke-width=".6" stroke-linejoin="round" d="M186.84 460.74L205.09 476.31L197.31 485.38L179.06 469.81ZM179.06 469.81L215.56 500.96L207.77 510.03L171.28 478.88ZM171.28 478.88L207.77 510.03L199.99 519.09L163.5 487.95Z"/>
      </g>
    </g>
    <g id="torso" aria-label="Torso">
      <g class="face" data-face="back">
        <path fill="#019c9e" d="M411.79 344.05L410.26 347.79L268.92 375.15L270.46 371.4Z"/>
        <path fill="#342d7d" stroke="#342d7d" stroke-width=".6" stroke-linejoin="round" d="M294.01 366.84L293.63 367.78L281.85 370.06L282.23 369.12ZM292.86 369.65L292.47 370.59L280.7 372.87L281.08 371.93ZM282.23 369.12L281.47 371L269.69 373.28L270.46 371.4ZM281.27 371.46L280.7 372.87L268.92 375.15L269.49 373.74Z"/>
      </g>
      <g class="face" data-face="top">
        <path fill="#355825" d="M410.26 347.79L411.79 344.05L420.95 391.13L419.41 394.88Z"/>
        <path fill="#00c7c8" stroke="#00c7c8" stroke-width=".6" stroke-linejoin="round" d="M410.26 347.79L410.45 347.32L412.74 359.1L412.54 359.56ZM411.6 344.51L411.79 344.05L414.08 355.82L413.89 356.29ZM412.54 359.56L412.74 359.1L415.03 370.87L414.83 371.34ZM413.89 356.29L414.08 355.82L416.37 367.59L416.18 368.06ZM414.83 371.34L415.03 370.87L417.31 382.64L417.12 383.11ZM416.18 368.06L416.37 367.59L418.66 379.36L418.47 379.83ZM417.12 383.11L417.31 382.64L419.6 394.41L419.41 394.88ZM418.47 379.83L418.66 379.36L420.95 391.13L420.76 391.6Z"/>
      </g>
      <g class="face" data-face="nx">
        <path fill="#016969" d="M410.26 347.79L419.41 394.88L278.07 422.24L268.92 375.15Z"/>
        <path fill="#312973" stroke="#312973" stroke-width=".6" stroke-linejoin="round" d="M292.47 370.59L301.63 417.68L289.85 419.96L280.7 372.87ZM280.7 372.87L289.85 419.96L278.07 422.24L268.92 375.15Z"/>
      </g>
    </g>
    <g id="head" aria-label="Head">
      <g class="face" data-face="top">
        <path fill="#3f6a2e" d="M507.13 302.84L526.72 365.59L508.44 438.23L488.85 375.48Z"/>
        <path fill="#4f7c37" stroke="#4f7c37" stroke-width=".6" stroke-linejoin="round" d="M505.01 328.84L507.46 336.69L505.18 345.77L502.73 337.92ZM502.73 337.92L507.62 353.61L505.34 362.69L500.44 347ZM502.89 354.85L505.34 362.69L503.05 371.77L500.6 363.93ZM510.24 378.38L512.68 386.22L510.4 395.3L507.95 387.46ZM507.95 387.46L510.4 395.3L508.11 404.38L505.67 396.54ZM508.28 421.31L510.73 429.15L508.44 438.23L505.99 430.39Z"/>
      </g>
      <g class="face" data-face="front">
        <path fill="#31512d" d="M488.85 375.48L508.44 438.23L416.26 437.16L396.67 374.41Z"/>
        <path fill="#3c5d32" stroke="#3c5d32" stroke-width=".6" stroke-linejoin="round" d="M505.99 430.39L508.44 438.23L496.92 438.1L494.47 430.25ZM482.23 391.03L484.68 398.88L473.15 398.74L470.7 390.9ZM489.57 414.57L492.02 422.41L480.5 422.28L478.05 414.43ZM465.81 375.21L468.25 383.06L456.73 382.92L454.28 375.08ZM482.95 430.12L485.4 437.96L473.87 437.83L471.42 429.99ZM431.24 374.81L433.69 382.66L422.16 382.52L419.71 374.68ZM448.38 429.72L450.83 437.56L439.3 437.43L436.85 429.58ZM422.16 382.52L424.61 390.37L413.09 390.23L410.64 382.39ZM427.06 398.21L431.96 413.9L420.43 413.76L415.54 398.08ZM434.41 421.74L436.85 429.58L425.33 429.45L422.88 421.61Z"/>
        <path fill="#556e4c" stroke="#556e4c" stroke-width=".6" stroke-linejoin="round" d="M484.68 398.88L489.57 414.57L478.05 414.43L473.15 398.74ZM468.25 383.06L470.7 390.9L459.18 390.77L456.73 382.92ZM480.5 422.28L482.95 430.12L471.42 429.99L468.97 422.14ZM454.28 375.08L456.73 382.92L445.21 382.79L442.76 374.95ZM466.53 414.3L468.97 422.14L457.45 422.01L455 414.16ZM471.42 429.99L473.87 437.83L462.35 437.7L459.9 429.85ZM452.55 406.32L455 414.16L443.48 414.03L441.03 406.19ZM433.69 382.66L438.58 398.34L427.06 398.21L422.16 382.52ZM443.48 414.03L448.38 429.72L436.85 429.58L431.96 413.9Z"/>
        <path fill="#5b7950" stroke="#5b7950" stroke-width=".6" stroke-linejoin="round" d="M470.7 390.9L480.5 422.28L468.97 422.14L459.18 390.77ZM459.18 390.77L466.53 414.3L455 414.16L447.66 390.63ZM450.11 398.48L452.55 406.32L441.03 406.19L438.58 398.34Z"/>
        <path fill="#496541" stroke="#496541" stroke-width=".6" stroke-linejoin="round" d="M456.73 382.92L459.18 390.77L447.66 390.63L445.21 382.79ZM468.97 422.14L471.42 429.99L459.9 429.85L457.45 422.01ZM442.76 374.95L445.21 382.79L433.69 382.66L431.24 374.81ZM459.9 429.85L462.35 437.7L450.83 437.56L448.38 429.72Z"/>
        <path fill="#17191d" stroke="#17191d" stroke-width=".6" stroke-linejoin="round" d="M445.21 382.79L450.11 398.48L438.58 398.34L433.69 382.66ZM455 414.16L459.9 429.85L448.38 429.72L443.48 414.03Z"/>
        <path fill="#2e4526" stroke="#2e4526" stroke-width=".6" stroke-linejoin="round" d="M413.09 390.23L417.98 405.92L406.46 405.79L401.56 390.1ZM420.43 413.76L422.88 421.61L411.36 421.47L408.91 413.63Z"/>
      </g>
      <g class="face" data-face="nx">
        <path fill="#446d33" d="M507.13 302.84L488.85 375.48L396.67 374.41L414.95 301.77Z"/>
        <path fill="#547f3b" stroke="#547f3b" stroke-width=".6" stroke-linejoin="round" d="M500.28 330.08L497.99 339.16L486.47 339.02L488.75 329.94ZM479.61 366.27L477.33 375.35L465.81 375.21L468.09 366.13ZM461.14 347.84L458.85 356.92L447.33 356.78L449.61 347.7ZM456.57 366L454.28 375.08L442.76 374.95L445.04 365.86ZM456.47 320.46L454.19 329.54L442.66 329.41L444.95 320.33ZM445.04 365.86L442.76 374.95L431.24 374.81L433.52 365.73ZM428.85 338.36L426.57 347.44L415.05 347.3L417.33 338.22Z"/>
        <path fill="#3e572c" stroke="#3e572c" stroke-width=".6" stroke-linejoin="round" d="M431.14 329.27L428.85 338.36L417.33 338.22L419.62 329.14Z"/>
      </g>
    </g>
    <g id="leg-right" aria-label="Right leg">
      <g class="face" data-face="back">
        <path fill="#393188" d="M263.58 373.3L261.37 378.69L136.11 448.39L138.33 443Z"/>
        <path fill="#282361" stroke="#282361" stroke-width=".6" stroke-linejoin="round" d="M221.28 397.88L220.17 400.58L209.73 406.38L210.84 403.69Z"/>
        <path fill="#55575b" stroke="#55575b" stroke-width=".6" stroke-linejoin="round" d="M169.64 425.57L167.43 430.97L156.99 436.78L159.2 431.38ZM159.2 431.38L156.99 436.78L146.55 442.58L148.76 437.19ZM148.76 437.19L146.55 442.58L136.11 448.39L138.33 443Z"/>
      </g>
      <g class="face" data-face="top">
        <path fill="#6053cd" d="M261.37 378.69L263.58 373.3L287.16 414.95L284.94 420.34Z"/>
      </g>
      <g class="face" data-face="nx">
        <path fill="#2f2871" d="M261.37 378.69L284.94 420.34L159.69 490.05L136.11 448.39Z"/>
        <path fill="#4539a3" stroke="#4539a3" stroke-width=".6" stroke-linejoin="round" d="M215.07 418.15L220.97 428.56L210.53 434.37L204.63 423.95ZM210.53 434.37L216.42 444.78L205.98 450.59L200.09 440.18ZM200.09 440.18L205.98 450.59L195.55 456.4L189.65 445.99Z"/>
        <path fill="#3e3e3f" stroke="#3e3e3f" stroke-width=".6" stroke-linejoin="round" d="M167.43 430.97L179.21 451.79L168.78 457.6L156.99 436.78ZM156.99 436.78L180.56 478.43L170.13 484.24L146.55 442.58ZM146.55 442.58L170.13 484.24L159.69 490.05L136.11 448.39Z"/>
      </g>
    </g>
    <g id="arm-right" aria-label="Right arm">
      <g class="face" data-face="front">
        <path fill="#54704c" d="M410.53 382.41L423.86 378.17L322.04 472.55L308.72 476.79Z"/>
        <path fill="#038388" stroke="#038388" stroke-width=".6" stroke-linejoin="round" d="M410.53 382.41L423.86 378.17L415.37 386.03L402.05 390.28ZM402.05 390.28L415.37 386.03L406.89 393.9L393.56 398.14ZM393.56 398.14L406.89 393.9L398.4 401.76L385.08 406ZM385.08 406L398.4 401.76L389.92 409.63L376.6 413.87Z"/>
      </g>
      <g class="face" data-face="top">
        <path fill="#22d2cf" d="M379.31 346.41L392.63 342.16L423.86 378.17L410.53 382.41Z"/>
      </g>
      <g class="face" data-face="nx">
        <path fill="#3a622c" d="M379.31 346.41L410.53 382.41L308.72 476.79L277.5 440.78Z"/>
        <path fill="#017677" stroke="#017677" stroke-width=".6" stroke-linejoin="round" d="M379.31 346.41L410.53 382.41L402.05 390.28L370.83 354.27ZM370.83 354.27L402.05 390.28L393.56 398.14L362.34 362.13ZM362.34 362.13L393.56 398.14L385.08 406L353.86 370Z"/>
        <path fill="#015556" stroke="#015556" stroke-width=".6" stroke-linejoin="round" d="M353.86 370L385.08 406L376.6 413.87L345.37 377.86Z"/>
      </g>
    </g>
  </g>
</svg>
