<!-- Generated by scripts/generate-zombie-sprites.mjs -->
<svg xmlns="http://www.w3.org/2000/svg" viewBox="0 0 512 520" width="512" height="520" role="img" aria-labelledby="walk-1-title">
  <title id="walk-1-title">Walk 2/16</title>
  <g id="zombie">
    <g id="arm-left" aria-label="Left arm">
      <g class="face" data-face="bottom">
        <path fill="#385f32" d="M380.27 247.35L378.67 254.24L359.98 297.9L361.58 291Z"/>
      </g>
      <g class="face" data-face="back">
        <path fill="#446843" d="M227.43 241.73L229.04 234.83L361.58 291L359.98 297.9Z"/>
        <path fill="#0c7b83" stroke="#0c7b83" stroke-width=".6" stroke-linejoin="round" d="M227.43 241.73L229.04 234.83L240.08 239.52L238.48 246.41ZM238.48 246.41L240.08 239.52L251.13 244.2L249.52 251.09ZM249.52 251.09L251.13 244.2L262.17 248.88L260.57 255.77ZM260.57 255.77L262.17 248.88L273.22 253.56L271.62 260.45Z"/>
      </g>
      <g class="face" data-face="nx">
        <path fill="#458230" d="M229.04 234.83L247.73 191.18L380.27 247.35L361.58 291Z"/>
        <path fill="#0b979a" stroke="#0b979a" stroke-width=".6" stroke-linejoin="round" d="M229.04 234.83L247.73 191.18L258.78 195.86L240.08 239.52ZM240.08 239.52L258.78 195.86L269.82 200.54L251.13 244.2ZM251.13 244.2L269.82 200.54L280.87 205.22L262.17 248.88Z"/>
        <path fill="#0a8a8c" stroke="#0a8a8c" stroke-width=".6" stroke-linejoin="round" d="M262.17 248.88L280.87 205.22L291.91 209.9L273.22 253.56Z"/>
      </g>
    </g>
    <g id="leg-left" aria-label="Left leg">
      <g class="face" data-face="front">
        <path fill="#2f298c" d="M259.84 342.55L259.84 344.23L243.27 487.18L243.27 485.51Z"/>
        <path fill="#2a2d34" stroke="#2a2d34" stroke-width=".6" stroke-linejoin="round" d="M246.03 461.68L246.03 462.52L244.65 474.43L244.65 473.6ZM246.03 462.94L246.03 463.36L244.65 475.27L244.65 474.85ZM244.65 473.6L244.65 475.27L243.27 487.18L243.27 485.51Z"/>
        <path fill="#363a41" stroke="#363a41" stroke-width=".6" stroke-linejoin="round" d="M246.03 462.52L246.03 462.94L244.65 474.85L244.65 474.43Z"/>
      </g>
      <g class="face" data-face="bottom">
        <path fill="#11161e" d="M243.27 485.51L243.27 487.18L195.59 481.66L195.59 479.99Z"/>
      </g>
      <g class="face" data-face="nx">
        <path fill="#2f268a" d="M212.16 337.03L259.84 342.55L243.27 485.51L195.59 479.99Z"/>
        <path fill="#3b2fac" stroke="#3b2fac" stroke-width=".6" stroke-linejoin="round" d="M217.18 397.98L229.1 399.36L227.71 411.27L215.79 409.89ZM215.79 409.89L239.64 412.65L238.25 424.56L214.41 421.8ZM226.33 423.18L238.25 424.56L236.87 436.48L224.95 435.1Z"/>
        <path fill="#1f2123" stroke="#1f2123" stroke-width=".6" stroke-linejoin="round" d="M199.73 444.25L223.57 447.01L222.19 458.92L198.35 456.16ZM198.35 456.16L246.03 461.68L244.65 473.6L196.97 468.08ZM196.97 468.08L244.65 473.6L243.27 485.51L195.59 479.99Z"/>
      </g>
    </g>
    <g id="torso" aria-label="Torso">
      <g class="face" data-face="back">
        <path fill="#0c8d93" d="M241.87 193.98L241.87 195.58L212.5 336.54L212.5 334.93Z"/>
        <path fill="#2c2682" stroke="#2c2682" stroke-width=".6" stroke-linejoin="round" d="M217.4 311.44L217.4 311.84L214.95 323.59L214.95 323.19ZM217.4 312.64L217.4 313.05L214.95 324.79L214.95 324.39ZM214.95 323.19L214.95 323.99L212.5 335.74L212.5 334.93ZM214.95 324.19L214.95 324.79L212.5 336.54L212.5 335.94Z"/>
      </g>
      <g class="face" data-face="top">
        <path fill="#548f36" d="M241.87 195.58L241.87 193.98L288.86 203.77L288.86 205.37Z"/>
        <path fill="#19dedd" stroke="#19dedd" stroke-width=".6" stroke-linejoin="round" d="M241.87 195.58L241.87 195.38L253.62 197.83L253.62 198.03ZM241.87 194.18L241.87 193.98L253.62 196.43L253.62 196.63ZM253.62 198.03L253.62 197.83L265.37 200.28L265.37 200.48ZM253.62 196.63L253.62 196.43L265.37 198.87L265.37 199.08ZM265.37 200.48L265.37 200.28L277.12 202.72L277.12 202.92ZM265.37 199.08L265.37 198.87L277.12 201.32L277.12 201.52ZM277.12 202.92L277.12 202.72L288.86 205.17L288.86 205.37ZM277.12 201.52L277.12 201.32L288.86 203.77L288.86 203.97Z"/>
      </g>
      <g class="face" data-face="nx">
        <path fill="#0da2a2" d="M241.87 195.58L288.86 205.37L259.5 346.33L212.5 336.54Z"/>
        <path fill="#392c9f" stroke="#392c9f" stroke-width=".6" stroke-linejoin="round" d="M217.4 313.05L264.39 322.83L261.94 334.58L214.95 324.79ZM214.95 324.79L261.94 334.58L259.5 346.33L212.5 336.54Z"/>
      </g>
    </g>
    <g id="head" aria-label="Head">
      <g class="face" data-face="top">
        <path fill="#5e9c42" d="M232.23 87.56L298.41 101.52L360.63 131.64L294.44 117.67Z"/>
        <path fill="#6ba747" stroke="#6ba747" stroke-width=".6" stroke-linejoin="round" d="M256.05 96.83L264.33 98.58L272.1 102.34L263.83 100.6ZM263.83 100.6L280.38 104.09L288.15 107.85L271.61 104.36ZM279.88 106.11L288.15 107.85L295.93 111.62L287.66 109.87ZM304.7 111.34L312.97 113.09L320.75 116.85L312.48 115.11ZM312.48 115.11L320.75 116.85L328.53 120.62L320.25 118.87ZM344.58 126.13L352.85 127.87L360.63 131.64L352.35 129.89Z"/>
      </g>
      <g class="face" data-face="front">
        <path fill="#468136" d="M294.44 117.67L360.63 131.64L329.57 221.72L263.38 207.75Z"/>
        <path fill="#538b38" stroke="#538b38" stroke-width=".6" stroke-linejoin="round" d="M352.35 129.89L360.63 131.64L356.75 142.9L348.47 141.15ZM307.1 132.42L315.38 134.17L311.5 145.43L303.22 143.68ZM331.93 137.66L340.2 139.41L336.32 150.67L328.04 148.92ZM286.68 140.19L294.95 141.94L291.07 153.2L282.79 151.45ZM344.59 152.41L352.86 154.16L348.98 165.42L340.71 163.67ZM275.03 173.97L283.3 175.72L279.42 186.98L271.15 185.23ZM332.94 186.19L341.22 187.94L337.33 199.2L329.06 197.45ZM279.42 186.98L287.69 188.72L283.81 199.98L275.54 198.24ZM295.97 190.47L312.51 193.96L308.63 205.22L292.08 201.73ZM320.79 195.71L329.06 197.45L325.18 208.71L316.9 206.97Z"/>
        <path fill="#6b9356" stroke="#6b9356" stroke-width=".6" stroke-linejoin="round" d="M315.38 134.17L331.93 137.66L328.04 148.92L311.5 145.43ZM294.95 141.94L303.22 143.68L299.34 154.94L291.07 153.2ZM336.32 150.67L344.59 152.41L340.71 163.67L332.43 161.93ZM282.79 151.45L291.07 153.2L287.18 164.46L278.91 162.71ZM324.16 160.18L332.43 161.93L328.55 173.19L320.28 171.44ZM340.71 163.67L348.98 165.42L345.1 176.68L336.82 174.93ZM312 169.7L320.28 171.44L316.4 182.7L308.12 180.95ZM283.3 175.72L299.85 179.21L295.97 190.47L279.42 186.98ZM316.4 182.7L332.94 186.19L329.06 197.45L312.51 193.96Z"/>
        <path fill="#729c5a" stroke="#729c5a" stroke-width=".6" stroke-linejoin="round" d="M303.22 143.68L336.32 150.67L332.43 161.93L299.34 154.94ZM299.34 154.94L324.16 160.18L320.28 171.44L295.46 166.2ZM303.73 167.95L312 169.7L308.12 180.95L299.85 179.21Z"/>
        <path fill="#5f8b4b" stroke="#5f8b4b" stroke-width=".6" stroke-linejoin="round" d="M291.07 153.2L299.34 154.94L295.46 166.2L287.18 164.46ZM332.43 161.93L340.71 163.67L336.82 174.93L328.55 173.19ZM278.91 162.71L287.18 164.46L283.3 175.72L275.03 173.97ZM336.82 174.93L345.1 176.68L341.22 187.94L332.94 186.19Z"/>
        <path fill="#0e0e10" stroke="#0e0e10" stroke-width=".6" stroke-linejoin="round" d="M287.18 164.46L303.73 167.95L299.85 179.21L283.3 175.72ZM320.28 171.44L336.82 174.93L332.94 186.19L316.4 182.7Z"/>
        <path fill="#4d7931" stroke="#4d7931" stroke-width=".6" stroke-linejoin="round" d="M283.81 199.98L300.36 203.47L296.47 214.73L279.93 211.24ZM308.63 205.22L316.9 206.97L313.02 218.22L304.75 216.48Z"/>
      </g>
      <g class="face" data-face="nx">
        <path fill="#448030" d="M232.23 87.56L294.44 117.67L263.38 207.75L201.17 177.64Z"/>
        <path fill="#508a35" stroke="#508a35" stroke-width=".6" stroke-linejoin="round" d="M255.56 98.85L263.33 102.62L259.45 113.88L251.67 110.11ZM282.78 125.17L290.56 128.93L286.68 140.19L278.9 136.43ZM259.46 140.16L267.24 143.92L263.36 155.18L255.58 151.42ZM275.02 147.69L282.79 151.45L278.91 162.71L271.13 158.95ZM232.25 140.13L240.03 143.89L236.14 155.15L228.37 151.39ZM271.13 158.95L278.91 162.71L275.03 173.97L267.25 170.21ZM240.04 170.18L247.82 173.94L243.93 185.2L236.16 181.44Z"/>
        <path fill="#487130" stroke="#487130" stroke-width=".6" stroke-linejoin="round" d="M232.26 166.41L240.04 170.18L236.16 181.44L228.38 177.67Z"/>
      </g>
    </g>
    <g id="leg-right" aria-label="Right leg">
      <g class="face" data-face="front">
        <path fill="#3b2fad" d="M259.8 338.34L259.8 336.67L278.57 479.35L278.57 481.02Z"/>
        <path fill="#333538" stroke="#333538" stroke-width=".6" stroke-linejoin="round" d="M275.44 457.24L275.44 456.82L277.01 468.72L277.01 469.13ZM275.44 456.41L275.44 455.57L277.01 467.46L277.01 468.3ZM277.01 469.13L277.01 467.46L278.57 479.35L278.57 481.02Z"/>
        <path fill="#444649" stroke="#444649" stroke-width=".6" stroke-linejoin="round" d="M275.44 456.82L275.44 456.41L277.01 468.3L277.01 468.72Z"/>
      </g>
      <g class="face" data-face="top">
        <path fill="#594add" d="M212.2 344.6L212.2 342.92L259.8 336.67L259.8 338.34Z"/>
      </g>
      <g class="face" data-face="nx">
        <path fill="#382b9f" d="M212.2 344.6L259.8 338.34L278.57 481.02L230.98 487.28Z"/>
        <path fill="#4536c6" stroke="#4536c6" stroke-width=".6" stroke-linejoin="round" d="M231.93 402.48L243.82 400.92L245.39 412.81L233.49 414.37ZM245.39 412.81L257.29 411.25L258.85 423.14L246.95 424.7ZM246.95 424.7L258.85 423.14L260.41 435.03L248.52 436.59Z"/>
        <path fill="#252525" stroke="#252525" stroke-width=".6" stroke-linejoin="round" d="M226.29 451.61L250.08 448.48L251.65 460.37L227.85 463.5ZM227.85 463.5L275.44 457.24L277.01 469.13L229.42 475.39ZM229.42 475.39L277.01 469.13L278.57 481.02L230.98 487.28Z"/>
      </g>
    </g>
    <g id="arm-right" aria-label="Right arm">
      <g class="face" data-face="top">
        <path fill="#0d9ea3" d="M228.28 244.52L229.54 237.66L246.53 193.29L245.27 200.15Z"/>
      </g>
      <g class="face" data-face="front">
        <path fill="#88b06c" d="M245.27 200.15L246.53 193.29L381.16 244.26L379.89 251.11Z"/>
        <path fill="#25cdcb" stroke="#25cdcb" stroke-width=".6" stroke-linejoin="round" d="M245.27 200.15L246.53 193.29L257.75 197.54L256.48 204.4ZM256.48 204.4L257.75 197.54L268.97 201.79L267.7 208.64ZM267.7 208.64L268.97 201.79L280.19 206.03L278.92 212.89ZM278.92 212.89L280.19 206.03L291.4 210.28L290.14 217.14Z"/>
      </g>
      <g class="face" data-face="nx">
        <path fill="#4c8f32" d="M228.28 244.52L245.27 200.15L379.89 251.11L362.91 295.48Z"/>
        <path fill="#0ba7a8" stroke="#0ba7a8" stroke-width=".6" stroke-linejoin="round" d="M228.28 244.52L245.27 200.15L256.48 204.4L239.5 248.76ZM239.5 248.76L256.48 204.4L267.7 208.64L250.72 253.01ZM250.72 253.01L267.7 208.64L278.92 212.89L261.94 257.26Z"/>
        <path fill="#0a9898" stroke="#0a9898" stroke-width=".6" stroke-linejoin="round" d="M261.94 257.26L278.92 212.89L290.14 217.14L273.15 261.5Z"/>
      </g>
    </g>
  </g>
</svg>
