<!-- Generated by scripts/generate-zombie-sprites.mjs -->
<svg xmlns="http://www.w3.org/2000/svg" viewBox="0 0 512 520" width="512" height="520" role="img" aria-labelledby="walk-15-title">
  <title id="walk-15-title">Walk 16/16</title>
  <g id="zombie">
    <g id="arm-left" aria-label="Left arm">
      <g class="face" data-face="bottom">
        <path fill="#53462a" d="M372.14 257.3L371.35 263.55L351.17 306.69L351.96 300.44Z"/>
      </g>
      <g class="face" data-face="back">
        <path fill="#524830" d="M220.53 246.39L221.32 240.14L351.96 300.44L351.17 306.69Z"/>
      </g>
      <g class="face" data-face="nx">
        <path fill="#765e2b" d="M221.32 240.14L241.5 197L372.14 257.3L351.96 300.44Z"/>
      </g>
    </g>
    <g id="leg-left" aria-label="Left leg">
      <g class="face" data-face="back">
        <path fill="#34384d" d="M212.78 353.46L212.78 351.78L249.09 491.04L249.09 492.72Z"/>
        <path fill="#12161f" stroke="#12161f" stroke-width=".6" stroke-linejoin="round" d="M212.78 353.46L212.78 353.04L215.8 364.64L215.8 365.06ZM215.8 363.81L215.8 363.39L218.83 374.99L218.83 375.41ZM218.83 376.67L218.83 375.83L221.86 387.43L221.86 388.27ZM224.88 399.88L224.88 398.2L227.91 409.81L227.91 411.48ZM227.91 411.48L227.91 409.81L230.93 421.41L230.93 423.09ZM230.93 423.09L230.93 421.41L233.96 433.02L233.96 434.69ZM233.96 434.69L233.96 433.02L236.99 444.62L236.99 446.3ZM243.04 469.51L243.04 468.67L246.07 480.27L246.07 481.11ZM246.07 479.86L246.07 479.44L249.09 491.04L249.09 491.46Z"/>
      </g>
      <g class="face" data-face="bottom">
        <path fill="#2f344b" d="M295.54 478.94L295.54 480.62L249.09 492.72L249.09 491.04Z"/>
      </g>
      <g class="face" data-face="nx">
        <path fill="#484960" d="M212.78 351.78L259.22 339.68L295.54 478.94L249.09 491.04Z"/>
        <path fill="#151619" stroke="#151619" stroke-width=".6" stroke-linejoin="round" d="M212.78 351.78L224.39 348.76L227.41 360.36L215.8 363.39ZM245.08 380.55L256.69 377.52L259.72 389.13L248.11 392.15ZM224.88 398.2L271.33 386.1L274.36 397.71L227.91 409.81ZM227.91 409.81L274.36 397.71L277.38 409.31L230.93 421.41ZM230.93 421.41L277.38 409.31L280.41 420.92L233.96 433.02ZM233.96 433.02L280.41 420.92L283.44 432.52L236.99 444.62ZM248.6 441.6L260.21 438.57L263.24 450.18L251.63 453.2ZM269.29 473.39L280.9 470.36L283.93 481.97L272.32 484.99Z"/>
      </g>
    </g>
    <g id="torso" aria-label="Torso">
      <g class="face" data-face="front">
        <path fill="#6b562b" d="M280.37 206.71L280.37 208.31L259.75 350.81L259.75 349.2Z"/>
      </g>
      <g class="face" data-face="bottom">
        <path fill="#5d4d2a" d="M259.75 349.2L259.75 350.81L212.25 343.94L212.25 342.33Z"/>
      </g>
      <g class="face" data-face="nx">
        <path fill="#8c7139" d="M232.87 199.84L280.37 206.71L259.75 349.2L212.25 342.33Z"/>
      </g>
    </g>
    <g id="head" aria-label="Head">
      <g class="face" data-face="top">
        <path fill="#5ccf44" d="M210.77 96.04L278.13 105.62L343.4 125.06L276.04 115.48Z"/>
        <path fill="#4eca35" stroke="#4eca35" stroke-width=".6" stroke-linejoin="round" d="M236.03 99.63L252.87 102.03L261.03 104.46L244.19 102.06ZM235.77 100.87L261.03 104.46L269.19 106.89L243.93 103.3ZM269.45 105.66L286.29 108.05L294.45 110.48L277.61 108.09ZM243.93 103.3L260.77 105.69L268.93 108.12L252.09 105.73ZM260.51 106.92L268.93 108.12L277.09 110.55L268.67 109.35ZM285.77 110.52L294.19 111.72L302.35 114.15L293.93 112.95ZM243.41 105.76L251.83 106.96L259.98 109.39L251.56 108.19ZM285.51 111.75L293.93 112.95L302.08 115.38L293.66 114.18ZM302.35 114.15L310.77 115.34L318.92 117.77L310.5 116.57ZM285.24 112.98L293.66 114.18L301.82 116.61L293.4 115.41ZM284.72 115.45L293.14 116.64L301.3 119.07L292.88 117.88ZM301.56 117.84L309.98 119.04L318.14 121.47L309.72 120.27ZM318.4 120.24L335.24 122.63L343.4 125.06L326.56 122.67Z"/>
      </g>
      <g class="face" data-face="front">
        <path fill="#40c029" d="M276.04 115.48L343.4 125.06L322.93 218.58L255.57 209Z"/>
        <path fill="#50c33b" stroke="#50c33b" stroke-width=".6" stroke-linejoin="round" d="M326.56 122.67L343.4 125.06L340.84 136.75L324 134.36ZM281.9 128.37L298.74 130.76L296.18 142.45L279.34 140.06ZM315.58 133.16L332.42 135.55L329.86 147.25L313.02 144.85ZM327.3 158.94L335.72 160.13L333.17 171.82L324.75 170.63ZM265.81 162.24L274.23 163.44L271.67 175.13L263.25 173.93ZM324.75 170.63L333.17 171.82L330.61 183.51L322.19 182.32ZM288.51 177.52L296.93 178.72L294.37 190.41L285.95 189.22ZM302.79 191.61L319.63 194.01L317.07 205.7L300.23 203.3ZM258.13 197.31L266.55 198.51L263.99 210.2L255.57 209ZM308.65 204.5L317.07 205.7L314.51 217.39L306.09 216.19Z"/>
        <path fill="#0b0b0c" stroke="#0b0b0c" stroke-width=".6" stroke-linejoin="round" d="M274.23 163.44L291.07 165.83L288.51 177.52L271.67 175.13ZM307.91 168.23L324.75 170.63L322.19 182.32L305.35 179.92Z"/>
      </g>
      <g class="face" data-face="nx">
        <path fill="#3dab2d" d="M210.77 96.04L276.04 115.48L255.57 209L190.31 189.56Z"/>
      </g>
    </g>
    <g id="leg-right" aria-label="Right leg">
      <g class="face" data-face="back">
        <path fill="#3d4056" d="M212.87 339.33L212.87 341L174.41 479.68L174.41 478.01Z"/>
        <path fill="#13161c" stroke="#13161c" stroke-width=".6" stroke-linejoin="round" d="M209.67 350.88L209.67 351.3L206.46 362.86L206.46 362.44ZM206.46 363.28L206.46 363.7L203.26 375.25L203.26 374.83ZM200.05 385.55L200.05 387.23L196.85 398.79L196.85 397.11ZM196.85 397.11L196.85 398.79L193.64 410.34L193.64 408.67ZM193.64 408.67L193.64 410.34L190.44 421.9L190.44 420.22ZM190.44 420.22L190.44 421.9L187.23 433.46L187.23 431.78ZM180.82 456.15L180.82 456.57L177.61 468.13L177.61 467.71ZM177.61 466.45L177.61 466.87L174.41 478.43L174.41 478.01Z"/>
      </g>
      <g class="face" data-face="top">
        <path fill="#5f5e73" d="M212.87 341L212.87 339.33L259.13 352.14L259.13 353.81Z"/>
      </g>
      <g class="face" data-face="nx">
        <path fill="#191919" d="M212.87 341L259.13 353.81L220.67 492.5L174.41 479.68Z"/>
        <path fill="#53536b" stroke="#53536b" stroke-width=".6" stroke-linejoin="round" d="M212.87 341L224.44 344.2L221.23 355.76L209.67 352.56ZM209.67 352.56L221.23 355.76L218.03 367.32L206.46 364.11ZM244.36 362.17L255.92 365.37L252.72 376.93L241.15 373.72ZM218.03 367.32L241.15 373.72L237.95 385.28L214.82 378.88ZM203.26 375.67L226.38 382.08L223.18 393.64L200.05 387.23ZM187.23 433.46L233.49 446.27L230.28 457.83L184.03 445.01ZM203.95 462.98L227.08 469.38L223.87 480.94L200.74 474.53ZM200.74 474.53L223.87 480.94L220.67 492.5L197.54 486.09Z"/>
      </g>
    </g>
    <g id="arm-right" aria-label="Right arm">
      <g class="face" data-face="front">
        <path fill="#91773f" d="M233.73 201.88L234.28 198.88L375.55 226.76L375 229.76Z"/>
      </g>
      <g class="face" data-face="nx">
        <path fill="#8a6f38" d="M224.45 248.87L233.73 201.88L375 229.76L365.72 276.75Z"/>
      </g>
    </g>
  </g>
</svg>
