<!-- Generated by scripts/generate-horse.mjs -->
<svg xmlns="http://www.w3.org/2000/svg" viewBox="0 0 512 520" width="512" height="520" role="img" aria-labelledby="walk-0-title">
  <title id="walk-0-title">Walk 1/16</title>
  <g id="horse">
    <g id="leg-front-left" aria-label="Front left">
      <g class="face" data-face="nx">
        <path fill="#714b2b" d="M309 340L349 340L349 420L309 420Z"/>
      </g>
    </g>
    <g id="hoof-front-left" aria-label="Front left hoof">
      <g class="face" data-face="nx">
        <path fill="#87582e" d="M309 420L349 420L349 500L309 500Z"/>
      </g>
    </g>
    <g id="leg-hind-left" aria-label="Hind left">
      <g class="face" data-face="nx">
        <path fill="#734d2d" d="M113 330L163 330L163 420L113 420Z"/>
      </g>
    </g>
    <g id="hoof-hind-left" aria-label="Hind left hoof">
      <g class="face" data-face="nx">
        <path fill="#895a30" d="M118 420L158 420L158 500L118 500Z"/>
      </g>
    </g>
    <g id="ear-right" aria-label="Right ear">
      <g class="face" data-face="top">
        <path fill="#8d6038" d="M361.13 169.68L375.93 176.58L380.8 179.75L366 172.85Z"/>
      </g>
      <g class="face" data-face="front">
        <path fill="#8a5e38" d="M366 172.85L380.8 179.75L366.9 206.25L352.09 199.36Z"/>
      </g>
      <g class="face" data-face="nx">
        <path fill="#754d2b" d="M361.13 169.68L366 172.85L352.09 199.36L347.22 196.19Z"/>
      </g>
    </g>
    <g id="ear-left" aria-label="Left ear">
      <g class="face" data-face="top">
        <path fill="#946841" d="M356.4 171.23L373.19 172.99L378.06 176.15L361.27 174.39Z"/>
      </g>
      <g class="face" data-face="front">
        <path fill="#8a5e38" d="M361.27 174.39L378.06 176.15L370.81 204.49L354.03 202.73Z"/>
      </g>
      <g class="face" data-face="nx">
        <path fill="#69472b" d="M356.4 171.23L361.27 174.39L354.03 202.73L349.16 199.56Z"/>
      </g>
    </g>
    <g id="mane" aria-label="Mane">
      <g class="face" data-face="front">
        <path fill="#684428" d="M335.78 170.42L339.68 170.42L291.19 322.59L287.29 322.59Z"/>
      </g>
      <g class="face" data-face="top">
        <path fill="#986a42" d="M298.47 158.06L302.37 158.06L339.68 170.42L335.78 170.42Z"/>
      </g>
      <g class="face" data-face="nx">
        <path fill="#85572e" d="M298.47 158.06L335.78 170.42L287.29 322.59L249.98 310.23Z"/>
      </g>
    </g>
    <g id="tail" aria-label="Tail">
      <g class="face" data-face="top">
        <path fill="#92653c" d="M16.32 243.21L19.45 243.21L86.37 262.51L83.23 262.51Z"/>
      </g>
      <g class="face" data-face="front">
        <path fill="#714f33" d="M83.23 262.51L86.37 262.51L75.41 300.96L72.27 300.96Z"/>
      </g>
      <g class="face" data-face="nx">
        <path fill="#926238" d="M16.32 243.21L83.23 262.51L72.27 300.96L5.35 281.66Z"/>
      </g>
    </g>
    <g id="head" aria-label="Head">
      <g class="face" data-face="top">
        <path fill="#986c44" d="M336.87 184.82L376.74 195.74L410.84 217.91L370.96 206.99Z"/>
        <path fill="#8d6039" stroke="#8d6039" stroke-width=".6" stroke-linejoin="round" d="M352.82 189.19L360.79 191.37L365.66 194.54L357.69 192.35ZM378.51 199.89L386.48 202.08L391.36 205.24L383.38 203.06ZM383.38 203.06L391.36 205.24L396.23 208.41L388.25 206.23ZM356.35 197.49L364.33 199.67L369.2 202.84L361.22 200.65ZM390.02 210.38L397.99 212.56L402.86 215.73L394.89 213.54Z"/>
      </g>
      <g class="face" data-face="nx">
        <path fill="#6d482a" d="M336.87 184.82L370.96 206.99L353.17 253.14L319.07 230.97Z"/>
        <path fill="#785334" stroke="#785334" stroke-width=".6" stroke-linejoin="round" d="M341.74 187.98L351.48 194.32L347.92 203.55L338.18 197.21ZM338.18 197.21L357.66 209.88L354.1 219.11L334.62 206.44ZM362.53 213.05L367.4 216.22L363.84 225.45L358.97 222.28ZM339.49 209.61L354.1 219.11L350.54 228.34L335.93 218.84ZM331.06 215.67L335.93 218.84L332.37 228.07L327.5 224.9ZM332.37 228.07L337.24 231.24L333.68 240.47L328.81 237.3ZM351.85 240.74L356.72 243.91L353.17 253.14L348.29 249.97Z"/>
      </g>
      <g class="face" data-face="front">
        <path fill="#80542d" d="M370.96 206.99L410.84 217.91L393.04 264.06L353.17 253.14Z"/>
      </g>
    </g>
    <g id="neck" aria-label="Neck">
      <g class="face" data-face="top">
        <path fill="#996b43" d="M318.44 186.35L326.24 186.35L400.87 211.07L393.06 211.07Z"/>
      </g>
      <g class="face" data-face="front">
        <path fill="#714e31" d="M393.06 211.07L400.87 211.07L358.43 344.22L350.63 344.22Z"/>
      </g>
      <g class="face" data-face="nx">
        <path fill="#8a5b33" d="M318.44 186.35L393.06 211.07L350.63 344.22L276.01 319.5Z"/>
      </g>
    </g>
    <g id="body" aria-label="Body">
      <g class="face" data-face="nx">
        <path fill="#95663c" d="M112.26 287.49L351.93 300.05L346.69 399.92L107.02 387.36Z"/>
      </g>
    </g>
    <g id="saddle" aria-label="Saddle">
      <g class="face" data-face="nx">
        <path fill="#86572d" d="M182.68 281.17L262.57 285.36L262.05 295.34L182.16 291.16Z"/>
      </g>
    </g>
    <g id="leg-hind-right" aria-label="Hind right">
      <g class="face" data-face="nx">
        <path fill="#86572d" d="M113 330L163 330L163 420L113 420Z"/>
      </g>
    </g>
    <g id="hoof-hind-right" aria-label="Hind right hoof">
      <g class="face" data-face="nx">
        <path fill="#84552b" d="M118 420L158 420L158 500L118 500Z"/>
      </g>
    </g>
    <g id="leg-front-right" aria-label="Front right">
      <g class="face" data-face="nx">
        <path fill="#8d5e34" d="M309 340L349 340L349 420L309 420Z"/>
      </g>
    </g>
    <g id="hoof-front-right" aria-label="Front right hoof">
      <g class="face" data-face="nx">
        <path fill="#8c5d33" d="M309 420L349 420L349 500L309 500Z"/>
      </g>
    </g>
    <g id="mouth" aria-label="Muzzle">
      <g class="face" data-face="top">
        <path fill="#92663e" d="M372.51 206.5L404.42 215.24L433.64 234.24L401.74 225.5Z"/>
      </g>
      <g class="face" data-face="nx">
        <path fill="#734f30" d="M372.51 206.5L401.74 225.5L391.06 253.19L361.84 234.19Z"/>
      </g>
      <g class="face" data-face="front">
        <path fill="#7a4e28" d="M401.74 225.5L433.64 234.24L422.96 261.93L391.06 253.19Z"/>
      </g>
    </g>
  </g>
</svg>
